<svg xmlns="http://www.w3.org/2000/svg" viewBox="0 0 420 420">
  <defs><linearGradient id="bg" x1="0" x2="1" y1="0" y2="1"><stop stop-color="#052d22"/><stop offset="1" stop-color="#0b6b4f"/></linearGradient></defs>
  <rect width="420" height="420" fill="url(#bg)"/>
  <g opacity=".16" stroke="#e5f6ef" stroke-width="2"><path d="M0 86H420M0 170H420M0 254H420M0 338H420M84 0V420M168 0V420M252 0V420M336 0V420"/></g>
  <rect x="58" y="58" width="92" height="286" rx="18" fill="#f7fff9"/>
  <rect x="164" y="76" width="92" height="286" rx="18" fill="#d9f6ef"/>
  <rect x="270" y="58" width="92" height="286" rx="18" fill="#f7fff9"/>
  <g fill="#0b6b4f"><rect x="76" y="88" width="56" height="18" rx="9"/><rect x="76" y="132" width="56" height="18" rx="9"/><rect x="76" y="176" width="56" height="18" rx="9"/><rect x="76" y="220" width="56" height="18" rx="9"/><rect x="76" y="264" width="56" height="18" rx="9"/></g>
  <g fill="#052d22"><rect x="182" y="106" width="56" height="18" rx="9"/><rect x="182" y="150" width="56" height="18" rx="9"/><rect x="182" y="194" width="56" height="18" rx="9"/><rect x="182" y="238" width="56" height="18" rx="9"/><rect x="288" y="88" width="56" height="18" rx="9"/><rect x="288" y="132" width="56" height="18" rx="9"/><rect x="288" y="176" width="56" height="18" rx="9"/><rect x="288" y="220" width="56" height="18" rx="9"/></g>
  <g fill="#8fd694"><circle cx="130" cy="97" r="5"/><circle cx="130" cy="141" r="5"/><circle cx="236" cy="115" r="5"/><circle cx="236" cy="203" r="5"/><circle cx="342" cy="97" r="5"/><circle cx="342" cy="229" r="5"/></g>
  <path d="M72 362 H348" stroke="#8fd694" stroke-width="14" stroke-linecap="round"/>
</svg>