<svg xmlns="http://www.w3.org/2000/svg" viewBox="0 0 420 420">
  <defs>
    <linearGradient id="sky" x1="0" x2="0" y1="0" y2="1"><stop stop-color="#d9f6ef"/><stop offset="1" stop-color="#f7fff9"/></linearGradient>
    <linearGradient id="road" x1="0" x2="1"><stop stop-color="#0b6b4f"/><stop offset="1" stop-color="#052d22"/></linearGradient>
  </defs>
  <rect width="420" height="420" fill="url(#sky)"/>
  <circle cx="325" cy="82" r="46" fill="#b7f0b1" opacity=".72"/>
  <g opacity=".92">
    <rect x="42" y="160" width="48" height="116" rx="6" fill="#0d5843"/>
    <rect x="104" y="112" width="58" height="164" rx="7" fill="#0b6b4f"/>
    <rect x="176" y="142" width="46" height="134" rx="6" fill="#16805f"/>
    <rect x="242" y="94" width="64" height="182" rx="8" fill="#0a4938"/>
    <rect x="322" y="138" width="44" height="138" rx="6" fill="#0d5843"/>
  </g>
  <g fill="#e5f6ef" opacity=".72">
    <rect x="55" y="178" width="10" height="14" rx="2"/><rect x="75" y="178" width="10" height="14" rx="2"/>
    <rect x="119" y="132" width="11" height="17" rx="2"/><rect x="140" y="132" width="11" height="17" rx="2"/>
    <rect x="257" y="116" width="12" height="18" rx="2"/><rect x="282" y="116" width="12" height="18" rx="2"/>
  </g>
  <path d="M0 312 C92 268 159 268 238 312 C300 347 355 352 420 328 L420 420 L0 420 Z" fill="url(#road)"/>
  <path d="M28 344 C141 309 260 318 392 362" fill="none" stroke="#f7fff9" stroke-width="10" stroke-linecap="round" stroke-dasharray="34 26" opacity=".9"/>
  <path d="M72 305 C112 250 176 250 220 304" fill="none" stroke="#8fd694" stroke-width="18" stroke-linecap="round"/>
  <path d="M87 303 V274 M146 302 V250 M205 304 V276" stroke="#fff" stroke-width="8" stroke-linecap="round" opacity=".95"/>
</svg>