<svg xmlns="http://www.w3.org/2000/svg" viewBox="0 0 420 420" width="420" height="420">
  <defs>
    <linearGradient id="bg" x1="0" x2="1" y1="0" y2="1">
      <stop stop-color="#f7fff9"/><stop offset=".55" stop-color="#e5f6ef"/><stop offset="1" stop-color="#075c60" stop-opacity=".34"/>
    </linearGradient>
    <linearGradient id="phone" x1="0" x2="1" y1="0" y2="1"><stop stop-color="#073b2d"/><stop offset="1" stop-color="#052d22"/></linearGradient>
    <filter id="shadow"><feDropShadow dx="0" dy="18" stdDeviation="18" flood-color="#052d22" flood-opacity=".24"/></filter>
  </defs>
  <rect width="420" height="420" fill="url(#bg)"/>
  <circle cx="340" cy="82" r="74" fill="#fff" opacity=".42"/>
  <circle cx="66" cy="332" r="92" fill="#075c60" opacity=".12"/>
  <g transform="translate(68 20) rotate(-4 142 190)" filter="url(#shadow)">
    <rect width="284" height="384" rx="44" fill="url(#phone)"/>
    <rect x="14" y="16" width="256" height="352" rx="34" fill="#f7fff9"/>
    <rect x="105" y="29" width="74" height="7" rx="4" fill="#0d5843" opacity=".38"/>
    <g transform="translate(36 56)">
      <rect width="212" height="88" rx="24" fill="#075c60"/>
      <text x="18" y="31" font-family="Montserrat,Arial" font-size="18" font-weight="600" fill="#fff">Nickel EV</text>
      <text x="18" y="54" font-family="Montserrat,Arial" font-size="10" font-weight="500" fill="rgba(255,255,255,.78)">Battery + downstream chain</text>
      <text x="18" y="78" font-family="Montserrat,Arial" font-size="18" font-weight="600" fill="#fff">+31.4%</text>
    </g>
    <path d="M56 188 C86 212 110 124 140 166 C173 210 198 104 262 138" fill="none" stroke="#0b6b4f" stroke-width="7" stroke-linecap="round"/>
    <path d="M56 218 H262" stroke="#dbece5" stroke-width="2" stroke-linecap="round" opacity=".8"/>
    
      <g transform="translate(48 246)">
        <rect width="214" height="48" rx="16" fill="#ffffff" stroke="#dbece5"/>
        <circle cx="25" cy="24" r="14" fill="#b9d2d4"/>
        <text x="50" y="21" font-family="Montserrat,Arial" font-size="12" font-weight="600" fill="#073b2d">INCO</text>
        <text x="50" y="36" font-family="Montserrat,Arial" font-size="9" font-weight="500" fill="#647e73">Nickel producer</text>
        <text x="195" y="29" text-anchor="end" font-family="Montserrat,Arial" font-size="11" font-weight="600" fill="#0b6b4f">31%</text>
      </g>
      <g transform="translate(48 304)">
        <rect width="214" height="48" rx="16" fill="#ffffff" stroke="#dbece5"/>
        <circle cx="25" cy="24" r="14" fill="#54777b"/>
        <text x="50" y="21" font-family="Montserrat,Arial" font-size="12" font-weight="600" fill="#073b2d">ANTM</text>
        <text x="50" y="36" font-family="Montserrat,Arial" font-size="9" font-weight="500" fill="#647e73">Ore + smelter</text>
        <text x="195" y="29" text-anchor="end" font-family="Montserrat,Arial" font-size="11" font-weight="600" fill="#0b6b4f">23%</text>
      </g>
      <g transform="translate(48 362)">
        <rect width="214" height="48" rx="16" fill="#ffffff" stroke="#dbece5"/>
        <circle cx="25" cy="24" r="14" fill="#8fd694"/>
        <text x="50" y="21" font-family="Montserrat,Arial" font-size="12" font-weight="600" fill="#073b2d">MDKA</text>
        <text x="50" y="36" font-family="Montserrat,Arial" font-size="9" font-weight="500" fill="#647e73">Battery metals</text>
        <text x="195" y="29" text-anchor="end" font-family="Montserrat,Arial" font-size="11" font-weight="600" fill="#0b6b4f">18%</text>
      </g>
    <g transform="translate(68 336)">
      <rect width="148" height="32" rx="16" fill="#052d22"/>
      <text x="74" y="21" text-anchor="middle" font-family="Montserrat,Arial" font-size="10" font-weight="600" fill="#fff">View allocation</text>
    </g>
  </g>
  <g transform="translate(262 282) rotate(8)" opacity=".96">
    <rect width="96" height="74" rx="20" fill="#fff" stroke="#dbece5"/>
    <text x="48" y="29" text-anchor="middle" font-family="Montserrat,Arial" font-size="11" font-weight="600" fill="#073b2d">IDX</text>
    <text x="48" y="51" text-anchor="middle" font-family="Montserrat,Arial" font-size="20" font-weight="600" fill="#0b6b4f">+31.4%</text>
  </g>
</svg>