<svg xmlns="http://www.w3.org/2000/svg" viewBox="0 0 240 240" width="240" height="240">
  <defs>
    <linearGradient id="bg" x1="0" x2="1" y1="0" y2="1"><stop stop-color="#276749"/><stop offset="1" stop-color="#052d22"/></linearGradient>
    <filter id="s"><feDropShadow dx="0" dy="10" stdDeviation="12" flood-color="#052d22" flood-opacity=".22"/></filter>
  </defs>
  <rect width="240" height="240" rx="120" fill="url(#bg)"/>
  <circle cx="120" cy="104" r="72" fill="rgba(255,255,255,.13)" stroke="rgba(255,255,255,.24)" stroke-width="2" filter="url(#s)"/>
  <path d="M120 166 C116 130 116 103 120 72" stroke="#8b5a2b" stroke-width="12" stroke-linecap="round"/>
  <path d="M120 94 C88 68 67 68 54 81 C82 92 101 103 120 124" fill="#8fd694"/>
  <path d="M121 94 C153 66 176 69 189 82 C159 92 139 103 121 124" fill="#68d391"/>
  <path d="M120 86 C106 55 107 39 120 26 C133 48 134 66 120 86" fill="#b7f0b1"/>
  <circle cx="120" cy="139" r="18" fill="#f6ad55"/>
  <text x="120" y="196" text-anchor="middle" font-family="Montserrat,Arial" font-size="21" font-weight="700" fill="#fff">CPO</text>
  <text x="120" y="218" text-anchor="middle" font-family="Montserrat,Arial" font-size="12" font-weight="500" fill="rgba(255,255,255,.72)">EXPORT</text>
</svg>