<svg xmlns="http://www.w3.org/2000/svg" viewBox="0 0 390 790" width="390" height="790">
  <defs>
    <linearGradient id="screen" x1="0" x2="1" y1="0" y2="1"><stop stop-color="#fbfffd"/><stop offset="1" stop-color="#eef8f3"/></linearGradient>
    <filter id="shadow"><feDropShadow dx="0" dy="20" stdDeviation="18" flood-color="#052d22" flood-opacity=".24"/></filter>
  </defs>
  <rect x="18" y="10" width="354" height="770" rx="54" fill="#052d22" filter="url(#shadow)"/>
  <rect x="34" y="31" width="322" height="728" rx="40" fill="url(#screen)"/>
  <rect x="146" y="45" width="98" height="8" rx="4" fill="#0d5843" opacity=".35"/>

  <text x="58" y="84" font-family="Montserrat,Arial,sans-serif" font-size="11" font-weight="600" fill="#647e73">IDX WATCHLIST</text>
  <text x="58" y="116" font-family="Montserrat,Arial,sans-serif" font-size="26" font-weight="600" fill="#073b2d">Watchlist</text>
  <g transform="translate(220 93)"><rect width="103" height="30" rx="15" fill="#e5f6ef"/><text x="51.5" y="20" text-anchor="middle" font-family="Montserrat,Arial,sans-serif" font-size="12" font-weight="600" fill="#0b6b4f">IHSG +0.6%</text></g>

  <g transform="translate(56 144)" font-family="Montserrat,Arial,sans-serif">
    <rect width="278" height="92" rx="26" fill="#052d22"/>
    <text x="22" y="32" font-size="14" font-weight="600" fill="#ffffff">IDX Market</text>
    <text x="22" y="58" font-size="12" font-weight="500" fill="#a9c7bb">Open 09:00-15:50 WIB</text>
    <rect x="172" y="28" width="84" height="32" rx="16" fill="#0b6b4f"/><text x="214" y="49" text-anchor="middle" font-size="11" font-weight="600" fill="#ffffff">Synced 14:12</text>
  </g>

  <text x="58" y="274" font-family="Montserrat,Arial,sans-serif" font-size="15" font-weight="600" fill="#073b2d">Stocks in active themes</text>
  <g transform="translate(56 294)" font-family="Montserrat,Arial,sans-serif">
    <rect width="278" height="50" rx="17" fill="#ffffff" stroke="#dbece5"/><text x="18" y="22" font-size="14" font-weight="600" fill="#073b2d">BBCA</text><text x="18" y="38" font-size="10" fill="#647e73">Bank Central Asia</text><path d="M126 34 C144 18 160 32 178 20 C194 10 204 20 216 14" fill="none" stroke="#0b6b4f" stroke-width="3" stroke-linecap="round"/><text x="252" y="22" text-anchor="end" font-size="12" font-weight="600" fill="#073b2d">Rp9,700</text><text x="252" y="39" text-anchor="end" font-size="10" font-weight="600" fill="#0b6b4f">+0.8%</text>
    <rect y="58" width="278" height="50" rx="17" fill="#ffffff" stroke="#dbece5"/><text x="18" y="80" font-size="14" font-weight="600" fill="#073b2d">BBRI</text><text x="18" y="96" font-size="10" fill="#647e73">Bank Rakyat Indonesia</text><path d="M126 90 C144 74 160 88 178 78 C194 72 204 84 216 82" fill="none" stroke="#b65b54" stroke-width="3" stroke-linecap="round"/><text x="252" y="80" text-anchor="end" font-size="12" font-weight="600" fill="#073b2d">Rp4,520</text><text x="252" y="97" text-anchor="end" font-size="10" font-weight="600" fill="#b65b54">-0.4%</text>
    <rect y="116" width="278" height="50" rx="17" fill="#ffffff" stroke="#dbece5"/><text x="18" y="138" font-size="14" font-weight="600" fill="#073b2d">TLKM</text><text x="18" y="154" font-size="10" fill="#647e73">Telkom Indonesia</text><path d="M126 152 C144 146 160 128 178 136 C194 142 204 126 216 120" fill="none" stroke="#0b6b4f" stroke-width="3" stroke-linecap="round"/><text x="252" y="138" text-anchor="end" font-size="12" font-weight="600" fill="#073b2d">Rp2,850</text><text x="252" y="155" text-anchor="end" font-size="10" font-weight="600" fill="#0b6b4f">+1.1%</text>
    <rect y="174" width="278" height="50" rx="17" fill="#ffffff" stroke="#dbece5"/><text x="18" y="196" font-size="14" font-weight="600" fill="#073b2d">ASII</text><text x="18" y="212" font-size="10" fill="#647e73">Astra International</text><path d="M126 210 C144 198 160 202 178 188 C194 178 204 186 216 180" fill="none" stroke="#0b6b4f" stroke-width="3" stroke-linecap="round"/><text x="252" y="196" text-anchor="end" font-size="12" font-weight="600" fill="#073b2d">Rp5,275</text><text x="252" y="213" text-anchor="end" font-size="10" font-weight="600" fill="#0b6b4f">+0.3%</text>
    <rect y="232" width="278" height="50" rx="17" fill="#ffffff" stroke="#dbece5"/><text x="18" y="254" font-size="14" font-weight="600" fill="#073b2d">ANTM</text><text x="18" y="270" font-size="10" fill="#647e73">Aneka Tambang</text><path d="M126 270 C144 252 160 260 178 242 C194 224 204 238 216 226" fill="none" stroke="#0b6b4f" stroke-width="3" stroke-linecap="round"/><text x="252" y="254" text-anchor="end" font-size="12" font-weight="600" fill="#073b2d">Rp1,740</text><text x="252" y="271" text-anchor="end" font-size="10" font-weight="600" fill="#0b6b4f">+2.2%</text>
    <rect y="290" width="278" height="50" rx="17" fill="#ffffff" stroke="#dbece5"/><text x="18" y="312" font-size="14" font-weight="600" fill="#073b2d">UNVR</text><text x="18" y="328" font-size="10" fill="#647e73">Unilever Indonesia</text><path d="M126 318 C144 310 160 326 178 316 C194 306 204 322 216 326" fill="none" stroke="#b65b54" stroke-width="3" stroke-linecap="round"/><text x="252" y="312" text-anchor="end" font-size="12" font-weight="600" fill="#073b2d">Rp2,100</text><text x="252" y="329" text-anchor="end" font-size="10" font-weight="600" fill="#b65b54">-0.6%</text>
  </g>

  <g transform="translate(56 652)" font-family="Montserrat,Arial,sans-serif"><rect width="278" height="42" rx="21" fill="#e5f6ef"/><text x="20" y="27" font-size="11" font-weight="600" fill="#073b2d">Used in 3 active themes</text><text x="252" y="27" text-anchor="end" font-size="11" font-weight="600" fill="#0b6b4f">Open stock detail</text></g>
  <g transform="translate(50 724)"><rect width="290" height="48" rx="24" fill="#dcece5" opacity=".95"/><circle cx="30" cy="17" r="9" fill="#a9c7bb"/><text x="30" y="36" text-anchor="middle" font-family="Montserrat,Arial,sans-serif" font-size="8" font-weight="600" fill="#a9c7bb">Home</text><circle cx="87" cy="17" r="9" fill="#a9c7bb"/><text x="87" y="36" text-anchor="middle" font-family="Montserrat,Arial,sans-serif" font-size="8" font-weight="600" fill="#a9c7bb">Themes</text><circle cx="145" cy="17" r="9" fill="#a9c7bb"/><text x="145" y="36" text-anchor="middle" font-family="Montserrat,Arial,sans-serif" font-size="8" font-weight="600" fill="#a9c7bb">Track</text><circle cx="203" cy="17" r="9" fill="#a9c7bb"/><text x="203" y="36" text-anchor="middle" font-family="Montserrat,Arial,sans-serif" font-size="8" font-weight="600" fill="#a9c7bb">Orders</text><circle cx="260" cy="17" r="9" fill="#0b6b4f"/><text x="260" y="36" text-anchor="middle" font-family="Montserrat,Arial,sans-serif" font-size="8" font-weight="600" fill="#0b6b4f">Watch</text></g>
</svg>
