<svg xmlns="http://www.w3.org/2000/svg" viewBox="0 0 390 790" width="390" height="790">
  <defs>
    <linearGradient id="screen" x1="0" x2="1" y1="0" y2="1"><stop stop-color="#fbfffd"/><stop offset="1" stop-color="#eef8f3"/></linearGradient>
    <filter id="shadow"><feDropShadow dx="0" dy="20" stdDeviation="18" flood-color="#052d22" flood-opacity=".24"/></filter>
  </defs>
  <rect x="18" y="10" width="354" height="770" rx="54" fill="#052d22" filter="url(#shadow)"/>
  <rect x="34" y="31" width="322" height="728" rx="40" fill="url(#screen)"/>
  <rect x="146" y="45" width="98" height="8" rx="4" fill="#0d5843" opacity=".35"/>

  <text x="58" y="84" font-family="Montserrat,Arial,sans-serif" font-size="11" font-weight="600" fill="#647e73">HOME / OVERVIEW</text>
  <text x="58" y="116" font-family="Montserrat,Arial,sans-serif" font-size="25" font-weight="600" fill="#073b2d">IDX Portfolio</text>
  <g transform="translate(232 93)"><rect width="91" height="28" rx="14" fill="#e5f6ef"/><text x="45.5" y="18" text-anchor="middle" font-family="Montserrat,Arial,sans-serif" font-size="11" font-weight="600" fill="#0b6b4f">+6.8% YTD</text></g>

  <g transform="translate(56 138)">
    <rect width="278" height="148" rx="28" fill="#052d22"/>
    <text x="22" y="34" font-family="Montserrat,Arial,sans-serif" font-size="12" font-weight="600" fill="#a9c7bb">TRACKED PORTFOLIO VALUE</text>
    <text x="22" y="78" font-family="Montserrat,Arial,sans-serif" font-size="36" font-weight="600" fill="#ffffff">Rp 428.2M</text>
    <path d="M22 122 C54 95 84 112 114 84 C151 50 181 73 210 49 C233 31 249 40 256 34" fill="none" stroke="#8fd694" stroke-width="7" stroke-linecap="round"/>
    <path d="M22 129 C54 102 84 119 114 91 C151 57 181 80 210 56 C233 38 249 47 256 41" fill="none" stroke="#8fd694" stroke-opacity=".18" stroke-width="18" stroke-linecap="round"/>
  </g>

  <g font-family="Montserrat,Arial,sans-serif" font-size="10" font-weight="600">
    <g transform="translate(56 302)"><rect width="134" height="30" rx="15" fill="#ffffff" stroke="#dbece5"/><circle cx="16" cy="15" r="6" fill="#0b6b4f"/><text x="30" y="19" fill="#073b2d">Stockbit connected</text></g>
    <g transform="translate(198 302)"><rect width="136" height="30" rx="15" fill="#ffffff" stroke="#dbece5"/><circle cx="16" cy="15" r="6" fill="#8fd694"/><text x="30" y="19" fill="#073b2d">IDX Open 14:12</text></g>
  </g>

  <g transform="translate(56 350)" font-family="Montserrat,Arial,sans-serif">
    <rect width="84" height="74" rx="22" fill="#ffffff" stroke="#dbece5"/>
    <text x="16" y="26" font-size="10" font-weight="600" fill="#647e73">RDN Cash</text><text x="16" y="52" font-size="15" font-weight="600" fill="#073b2d">Rp22.4M</text>
    <rect x="97" width="84" height="74" rx="22" fill="#ffffff" stroke="#dbece5"/>
    <text x="113" y="26" font-size="10" font-weight="600" fill="#647e73">Drift</text><text x="113" y="52" font-size="17" font-weight="600" fill="#b7791f">4.8%</text>
    <rect x="194" width="84" height="74" rx="22" fill="#ffffff" stroke="#dbece5"/>
    <text x="210" y="26" font-size="10" font-weight="600" fill="#647e73">Themes</text><text x="210" y="52" font-size="15" font-weight="600" fill="#073b2d">4 active</text>
  </g>

  <text x="58" y="462" font-family="Montserrat,Arial,sans-serif" font-size="15" font-weight="600" fill="#073b2d">Explore themes</text>
  <g transform="translate(56 480)" font-family="Montserrat,Arial,sans-serif">
    <rect width="278" height="52" rx="18" fill="#ffffff" stroke="#dbece5"/><circle cx="27" cy="26" r="15" fill="#3f352b"/><text x="52" y="24" font-size="13" font-weight="600" fill="#073b2d">Commodity - Driven</text><text x="52" y="40" font-size="10" font-weight="500" fill="#647e73">Coal, nickel, energy</text><text x="250" y="31" text-anchor="end" font-size="12" font-weight="600" fill="#0b6b4f">+42.7%</text>
    <rect y="62" width="278" height="52" rx="18" fill="#ffffff" stroke="#dbece5"/><circle cx="27" cy="88" r="15" fill="#052d22"/><text x="52" y="86" font-size="13" font-weight="600" fill="#073b2d">Bank Dividend Core</text><text x="52" y="102" font-size="10" font-weight="500" fill="#647e73">Large bank dividends</text><text x="250" y="93" text-anchor="end" font-size="12" font-weight="600" fill="#0b6b4f">Rp118.4B</text>
    <rect y="124" width="278" height="52" rx="18" fill="#ffffff" stroke="#dbece5"/><circle cx="27" cy="150" r="15" fill="#075c60"/><text x="52" y="148" font-size="13" font-weight="600" fill="#073b2d">Nickel EV Chain</text><text x="52" y="164" font-size="10" font-weight="500" fill="#647e73">Battery metals basket</text><text x="250" y="155" text-anchor="end" font-size="12" font-weight="600" fill="#0b6b4f">+31.4%</text>
  </g>

  <g transform="translate(93 670)"><rect width="204" height="42" rx="21" fill="#0b6b4f"/><text x="102" y="27" text-anchor="middle" font-family="Montserrat,Arial,sans-serif" font-size="13" font-weight="600" fill="#ffffff">Explore themes</text></g>
  <g transform="translate(50 724)"><rect width="290" height="48" rx="24" fill="#dcece5" opacity=".95"/><circle cx="30" cy="17" r="9" fill="#0b6b4f"/><text x="30" y="36" text-anchor="middle" font-family="Montserrat,Arial,sans-serif" font-size="8" font-weight="600" fill="#0b6b4f">Home</text><circle cx="87" cy="17" r="9" fill="#a9c7bb"/><text x="87" y="36" text-anchor="middle" font-family="Montserrat,Arial,sans-serif" font-size="8" font-weight="600" fill="#a9c7bb">Themes</text><circle cx="145" cy="17" r="9" fill="#a9c7bb"/><text x="145" y="36" text-anchor="middle" font-family="Montserrat,Arial,sans-serif" font-size="8" font-weight="600" fill="#a9c7bb">Track</text><circle cx="203" cy="17" r="9" fill="#a9c7bb"/><text x="203" y="36" text-anchor="middle" font-family="Montserrat,Arial,sans-serif" font-size="8" font-weight="600" fill="#a9c7bb">Orders</text><circle cx="260" cy="17" r="9" fill="#a9c7bb"/><text x="260" y="36" text-anchor="middle" font-family="Montserrat,Arial,sans-serif" font-size="8" font-weight="600" fill="#a9c7bb">Watch</text></g>
</svg>
