<svg xmlns="http://www.w3.org/2000/svg" viewBox="0 0 390 790" width="390" height="790">
  <defs>
    <linearGradient id="screen" x1="0" x2="1" y1="0" y2="1"><stop stop-color="#fbfffd"/><stop offset="1" stop-color="#eef8f3"/></linearGradient>
    <filter id="shadow"><feDropShadow dx="0" dy="20" stdDeviation="18" flood-color="#052d22" flood-opacity=".24"/></filter>
  </defs>
  <rect x="18" y="10" width="354" height="770" rx="54" fill="#052d22" filter="url(#shadow)"/>
  <rect x="34" y="31" width="322" height="728" rx="40" fill="url(#screen)"/>
  <rect x="146" y="45" width="98" height="8" rx="4" fill="#0d5843" opacity=".35"/>

  <text x="58" y="84" font-family="Montserrat,Arial,sans-serif" font-size="11" font-weight="600" fill="#647e73">PORTFOLIO TRACKING</text>
  <text x="58" y="116" font-family="Montserrat,Arial,sans-serif" font-size="25" font-weight="600" fill="#073b2d">Allocation Health</text>
  <g transform="translate(56 138)">
    <rect width="278" height="122" rx="28" fill="#052d22"/>
    <text x="22" y="35" font-family="Montserrat,Arial,sans-serif" font-size="12" font-weight="600" fill="#a9c7bb">HEALTH SCORE</text>
    <text x="22" y="84" font-family="Montserrat,Arial,sans-serif" font-size="44" font-weight="600" fill="#ffffff">84/100</text>
    <g transform="translate(178 31)"><circle cx="36" cy="36" r="31" fill="none" stroke="#214d42" stroke-width="8"/><path d="M36 5 A31 31 0 1 1 10 53" fill="none" stroke="#8fd694" stroke-width="8" stroke-linecap="round"/><text x="36" y="42" text-anchor="middle" font-family="Montserrat,Arial,sans-serif" font-size="12" font-weight="600" fill="#ffffff">4.8%</text></g>
    <text x="22" y="105" font-family="Montserrat,Arial,sans-serif" font-size="11" font-weight="500" fill="#a9c7bb">3 holdings need action</text>
  </g>

  <g transform="translate(56 276)" font-family="Montserrat,Arial,sans-serif" font-size="10" font-weight="600">
    <rect width="84" height="28" rx="14" fill="#e5f6ef"/><text x="42" y="18" text-anchor="middle" fill="#0b6b4f">Stockbit synced</text>
    <rect x="92" width="54" height="28" rx="14" fill="#ffffff" stroke="#dbece5"/><text x="119" y="18" text-anchor="middle" fill="#073b2d">2m ago</text>
    <rect x="154" width="124" height="28" rx="14" fill="#ffffff" stroke="#dbece5"/><text x="216" y="18" text-anchor="middle" fill="#073b2d">RDN Rp22.4M</text>
  </g>

  <text x="58" y="333" font-family="Montserrat,Arial,sans-serif" font-size="15" font-weight="600" fill="#073b2d">Target vs current</text>
  <g transform="translate(56 352)" font-family="Montserrat,Arial,sans-serif" font-size="9" font-weight="600">
    <text x="0" y="12" fill="#073b2d">BBCA</text><rect x="42" y="2" width="76" height="8" rx="4" fill="#dbece5"/><rect x="42" y="2" width="56" height="8" rx="4" fill="#0b6b4f"/><rect x="126" y="2" width="76" height="8" rx="4" fill="#dbece5"/><rect x="126" y="2" width="61" height="8" rx="4" fill="#b7791f"/><text x="236" y="12" fill="#b7791f">Trim</text>
    <text x="0" y="48" fill="#073b2d">BBRI</text><rect x="42" y="38" width="76" height="8" rx="4" fill="#dbece5"/><rect x="42" y="38" width="48" height="8" rx="4" fill="#0b6b4f"/><rect x="126" y="38" width="76" height="8" rx="4" fill="#dbece5"/><rect x="126" y="38" width="42" height="8" rx="4" fill="#8fd694"/><text x="236" y="48" fill="#0b6b4f">Buy</text>
    <text x="0" y="84" fill="#073b2d">BMRI</text><rect x="42" y="74" width="76" height="8" rx="4" fill="#dbece5"/><rect x="42" y="74" width="36" height="8" rx="4" fill="#0b6b4f"/><rect x="126" y="74" width="76" height="8" rx="4" fill="#dbece5"/><rect x="126" y="74" width="36" height="8" rx="4" fill="#8fd694"/><text x="236" y="84" fill="#647e73">OK</text>
    <text x="0" y="120" fill="#073b2d">TLKM</text><rect x="42" y="110" width="76" height="8" rx="4" fill="#dbece5"/><rect x="42" y="110" width="16" height="8" rx="4" fill="#0b6b4f"/><rect x="126" y="110" width="76" height="8" rx="4" fill="#dbece5"/><rect x="126" y="110" width="14" height="8" rx="4" fill="#8fd694"/><text x="236" y="120" fill="#0b6b4f">Buy</text>
    <text x="0" y="156" fill="#073b2d">Cash</text><rect x="42" y="146" width="76" height="8" rx="4" fill="#dbece5"/><rect x="42" y="146" width="20" height="8" rx="4" fill="#a9c7bb"/><rect x="126" y="146" width="76" height="8" rx="4" fill="#dbece5"/><rect x="126" y="146" width="27" height="8" rx="4" fill="#b7791f"/><text x="236" y="156" fill="#b7791f">Deploy</text>
    <text x="42" y="178" fill="#647e73">Target</text><text x="126" y="178" fill="#647e73">Current</text>
  </g>

  <g transform="translate(56 560)" font-family="Montserrat,Arial,sans-serif"><rect width="278" height="84" rx="22" fill="#ffffff" stroke="#dbece5"/><text x="20" y="28" font-size="15" font-weight="600" fill="#073b2d">Suggested rebalance</text><text x="20" y="50" font-size="11" font-weight="500" fill="#647e73">Buy BBRI, BMRI, TLKM</text><text x="20" y="67" font-size="11" font-weight="500" fill="#647e73">Trim BBCA</text><rect x="170" y="24" width="88" height="36" rx="18" fill="#0b6b4f"/><text x="214" y="47" text-anchor="middle" font-size="11" font-weight="600" fill="#ffffff">Review</text></g>
  <g transform="translate(50 724)"><rect width="290" height="48" rx="24" fill="#dcece5" opacity=".95"/><circle cx="30" cy="17" r="9" fill="#a9c7bb"/><text x="30" y="36" text-anchor="middle" font-family="Montserrat,Arial,sans-serif" font-size="8" font-weight="600" fill="#a9c7bb">Home</text><circle cx="87" cy="17" r="9" fill="#a9c7bb"/><text x="87" y="36" text-anchor="middle" font-family="Montserrat,Arial,sans-serif" font-size="8" font-weight="600" fill="#a9c7bb">Themes</text><circle cx="145" cy="17" r="9" fill="#0b6b4f"/><text x="145" y="36" text-anchor="middle" font-family="Montserrat,Arial,sans-serif" font-size="8" font-weight="600" fill="#0b6b4f">Track</text><circle cx="203" cy="17" r="9" fill="#a9c7bb"/><text x="203" y="36" text-anchor="middle" font-family="Montserrat,Arial,sans-serif" font-size="8" font-weight="600" fill="#a9c7bb">Orders</text><circle cx="260" cy="17" r="9" fill="#a9c7bb"/><text x="260" y="36" text-anchor="middle" font-family="Montserrat,Arial,sans-serif" font-size="8" font-weight="600" fill="#a9c7bb">Watch</text></g>
</svg>
