<svg xmlns="http://www.w3.org/2000/svg" viewBox="0 0 390 790" width="390" height="790">
  <defs>
    <linearGradient id="screen" x1="0" x2="1" y1="0" y2="1"><stop stop-color="#fbfffd"/><stop offset="1" stop-color="#eef8f3"/></linearGradient>
    <filter id="shadow"><feDropShadow dx="0" dy="20" stdDeviation="18" flood-color="#052d22" flood-opacity=".24"/></filter>
  </defs>
  <rect x="18" y="10" width="354" height="770" rx="54" fill="#052d22" filter="url(#shadow)"/>
  <rect x="34" y="31" width="322" height="728" rx="40" fill="url(#screen)"/>
  <rect x="146" y="45" width="98" height="8" rx="4" fill="#0d5843" opacity=".35"/>

  <text x="58" y="84" font-family="Montserrat,Arial,sans-serif" font-size="11" font-weight="600" fill="#647e73">THEME BASKET</text>
  <text x="58" y="115" font-family="Montserrat,Arial,sans-serif" font-size="24" font-weight="600" fill="#073b2d">Bank Dividend Core</text>
  <text x="58" y="137" font-family="Montserrat,Arial,sans-serif" font-size="12" font-weight="500" fill="#647e73">Dividend banks + telco</text>

  <g transform="translate(56 158)">
    <rect width="278" height="112" rx="28" fill="#052d22"/>
    <text x="22" y="34" font-family="Montserrat,Arial,sans-serif" font-size="12" font-weight="600" fill="#a9c7bb">2Y MODEL RETURN</text>
    <text x="22" y="82" font-family="Montserrat,Arial,sans-serif" font-size="42" font-weight="600" fill="#ffffff">+15.8%</text>
    <path d="M178 84 C202 53 226 72 256 35" fill="none" stroke="#8fd694" stroke-width="7" stroke-linecap="round"/>
  </g>

  <g transform="translate(56 288)" font-family="Montserrat,Arial,sans-serif" font-size="10" font-weight="600">
    <rect width="82" height="28" rx="14" fill="#e5f6ef"/><text x="41" y="18" text-anchor="middle" fill="#0b6b4f">Moderate risk</text>
    <rect x="92" width="92" height="28" rx="14" fill="#e5f6ef"/><text x="138" y="18" text-anchor="middle" fill="#0b6b4f">+4.2% vs IHSG</text>
    <rect x="194" width="84" height="28" rx="14" fill="#ffffff" stroke="#dbece5"/><text x="236" y="18" text-anchor="middle" fill="#073b2d">Min. 1 lot</text>
  </g>

  <g transform="translate(56 335)" font-family="Montserrat,Arial,sans-serif">
    <rect width="278" height="78" rx="22" fill="#ffffff" stroke="#dbece5"/>
    <text x="22" y="31" font-size="15" font-weight="600" fill="#073b2d">Stable IDX leaders</text>
    <text x="22" y="54" font-size="11" font-weight="500" fill="#647e73">Dividend focus across banks and telco</text>
  </g>

  <text x="58" y="447" font-family="Montserrat,Arial,sans-serif" font-size="15" font-weight="600" fill="#073b2d">Allocation</text>
  <g transform="translate(56 466)" font-family="Montserrat,Arial,sans-serif" font-size="10" font-weight="600">
    <text x="0" y="11" fill="#073b2d">BBCA</text><rect x="45" y="1" width="170" height="10" rx="5" fill="#dbece5"/><rect x="45" y="1" width="112" height="10" rx="5" fill="#0b6b4f"/><text x="238" y="11" fill="#0b6b4f">28%</text>
    <text x="0" y="39" fill="#073b2d">BBRI</text><rect x="45" y="29" width="170" height="10" rx="5" fill="#dbece5"/><rect x="45" y="29" width="96" height="10" rx="5" fill="#0b6b4f"/><text x="238" y="39" fill="#0b6b4f">24%</text>
    <text x="0" y="67" fill="#073b2d">BMRI</text><rect x="45" y="57" width="170" height="10" rx="5" fill="#dbece5"/><rect x="45" y="57" width="72" height="10" rx="5" fill="#0b6b4f"/><text x="238" y="67" fill="#0b6b4f">18%</text>
    <text x="0" y="95" fill="#073b2d">BBNI</text><rect x="45" y="85" width="170" height="10" rx="5" fill="#dbece5"/><rect x="45" y="85" width="48" height="10" rx="5" fill="#0b6b4f"/><text x="238" y="95" fill="#0b6b4f">12%</text>
    <text x="0" y="123" fill="#073b2d">TLKM</text><rect x="45" y="113" width="170" height="10" rx="5" fill="#dbece5"/><rect x="45" y="113" width="32" height="10" rx="5" fill="#0b6b4f"/><text x="238" y="123" fill="#0b6b4f">8%</text>
    <text x="0" y="151" fill="#073b2d">Cash</text><rect x="45" y="141" width="170" height="10" rx="5" fill="#dbece5"/><rect x="45" y="141" width="40" height="10" rx="5" fill="#a9c7bb"/><text x="238" y="151" fill="#647e73">10%</text>
  </g>

  <g transform="translate(56 630)" font-family="Montserrat,Arial,sans-serif"><rect width="278" height="44" rx="18" fill="#ffffff" stroke="#dbece5"/><text x="18" y="20" font-size="11" font-weight="600" fill="#073b2d">Updated by FundTracker Research</text><text x="18" y="34" font-size="10" fill="#647e73">Next rebalance Friday 09:00</text><rect x="190" y="10" width="70" height="24" rx="12" fill="#0b6b4f"/><text x="225" y="26" text-anchor="middle" font-size="10" font-weight="600" fill="#fff">Track</text></g>
  <g transform="translate(50 724)"><rect width="290" height="48" rx="24" fill="#dcece5" opacity=".95"/><circle cx="30" cy="17" r="9" fill="#a9c7bb"/><text x="30" y="36" text-anchor="middle" font-family="Montserrat,Arial,sans-serif" font-size="8" font-weight="600" fill="#a9c7bb">Home</text><circle cx="87" cy="17" r="9" fill="#0b6b4f"/><text x="87" y="36" text-anchor="middle" font-family="Montserrat,Arial,sans-serif" font-size="8" font-weight="600" fill="#0b6b4f">Themes</text><circle cx="145" cy="17" r="9" fill="#a9c7bb"/><text x="145" y="36" text-anchor="middle" font-family="Montserrat,Arial,sans-serif" font-size="8" font-weight="600" fill="#a9c7bb">Track</text><circle cx="203" cy="17" r="9" fill="#a9c7bb"/><text x="203" y="36" text-anchor="middle" font-family="Montserrat,Arial,sans-serif" font-size="8" font-weight="600" fill="#a9c7bb">Orders</text><circle cx="260" cy="17" r="9" fill="#a9c7bb"/><text x="260" y="36" text-anchor="middle" font-family="Montserrat,Arial,sans-serif" font-size="8" font-weight="600" fill="#a9c7bb">Watch</text></g>
</svg>
